<svg width="20" height="20" viewBox="0 0 20 20" fill="none" xmlns="http://www.w3.org/2000/svg">
<g id="mdi:location">
<path id="Vector" d="M9.99935 9.58268C9.44682 9.58268 8.91691 9.36319 8.52621 8.97249C8.13551 8.58179 7.91602 8.05188 7.91602 7.49935C7.91602 6.94681 8.13551 6.41691 8.52621 6.02621C8.91691 5.63551 9.44682 5.41602 9.99935 5.41602C10.5519 5.41602 11.0818 5.63551 11.4725 6.02621C11.8632 6.41691 12.0827 6.94681 12.0827 7.49935C12.0827 7.77294 12.0288 8.04384 11.9241 8.29661C11.8194 8.54937 11.6659 8.77903 11.4725 8.97249C11.279 9.16594 11.0494 9.3194 10.7966 9.4241C10.5438 9.5288 10.2729 9.58268 9.99935 9.58268ZM9.99935 1.66602C8.45225 1.66602 6.96852 2.2806 5.87456 3.37456C4.7806 4.46852 4.16602 5.95225 4.16602 7.49935C4.16602 11.8743 9.99935 18.3327 9.99935 18.3327C9.99935 18.3327 15.8327 11.8743 15.8327 7.49935C15.8327 5.95225 15.2181 4.46852 14.1241 3.37456C13.0302 2.2806 11.5464 1.66602 9.99935 1.66602Z" fill="#AAAAAA"/>
</g>
</svg>
