<svg width="16" height="16" viewBox="0 0 16 16" fill="none" xmlns="http://www.w3.org/2000/svg">
<rect width="16" height="16" rx="8" fill="#737A8E" fill-opacity="0.7"/>
<path fill-rule="evenodd" clip-rule="evenodd" d="M11.3146 5.22095C11.3566 5.17897 11.39 5.12912 11.4127 5.07425C11.4355 5.01938 11.4472 4.96057 11.4473 4.90116C11.4473 4.84176 11.4356 4.78292 11.4129 4.72803C11.3902 4.67313 11.3569 4.62324 11.315 4.58121C11.273 4.53918 11.2231 4.50583 11.1683 4.48306C11.1134 4.46029 11.0546 4.44856 10.9952 4.44852C10.9358 4.44848 10.8769 4.46015 10.822 4.48285C10.7672 4.50555 10.7173 4.53884 10.6752 4.58082L7.94721 7.30884L5.21997 4.58082C5.13508 4.49593 5.01995 4.44824 4.89991 4.44824C4.77986 4.44824 4.66473 4.49593 4.57984 4.58082C4.49495 4.6657 4.44727 4.78083 4.44727 4.90088C4.44727 5.02093 4.49495 5.13606 4.57984 5.22095L7.30786 7.94818L4.57984 10.6754C4.53781 10.7175 4.50447 10.7674 4.48172 10.8223C4.45897 10.8772 4.44727 10.936 4.44727 10.9955C4.44727 11.0549 4.45897 11.1138 4.48172 11.1687C4.50447 11.2236 4.53781 11.2735 4.57984 11.3156C4.66473 11.4004 4.77986 11.4481 4.89991 11.4481C4.95935 11.4481 5.01821 11.4364 5.07312 11.4137C5.12804 11.3909 5.17794 11.3576 5.21997 11.3156L7.94721 8.58753L10.6752 11.3156C10.7601 11.4003 10.8752 11.4479 10.9952 11.4478C11.1152 11.4478 11.2302 11.4 11.315 11.3152C11.3998 11.2303 11.4473 11.1152 11.4473 10.9952C11.4472 10.8752 11.3995 10.7602 11.3146 10.6754L8.58655 7.94818L11.3146 5.22095Z" fill="#FCFCFC"/>
</svg>
