<svg width="93" height="32" viewBox="0 0 93 32" fill="none" xmlns="http://www.w3.org/2000/svg">
<rect width="93" height="32" rx="16" fill="#515151" fill-opacity="0.95"/>
<path d="M18.6582 17.6982H20.7021C20.6611 18.3682 20.4766 18.9629 20.1484 19.4824C19.8249 20.002 19.3714 20.4076 18.7881 20.6992C18.2093 20.9909 17.512 21.1367 16.6963 21.1367C16.0583 21.1367 15.4863 21.0273 14.9805 20.8086C14.4746 20.5853 14.0417 20.2663 13.6816 19.8516C13.3262 19.4368 13.055 18.9355 12.8682 18.3477C12.6813 17.7598 12.5879 17.1012 12.5879 16.3721V15.6816C12.5879 14.9525 12.6836 14.2939 12.875 13.7061C13.071 13.1136 13.349 12.61 13.709 12.1953C14.0736 11.7806 14.5088 11.4616 15.0146 11.2383C15.5205 11.015 16.0856 10.9033 16.71 10.9033C17.5394 10.9033 18.2389 11.0537 18.8086 11.3545C19.3828 11.6553 19.8271 12.07 20.1416 12.5986C20.4606 13.1273 20.652 13.7288 20.7158 14.4033H18.665C18.6423 14.0023 18.5625 13.6628 18.4258 13.3848C18.2891 13.1022 18.0817 12.8903 17.8037 12.749C17.5303 12.6032 17.1657 12.5303 16.71 12.5303C16.3682 12.5303 16.0697 12.5941 15.8145 12.7217C15.5592 12.8493 15.3451 13.043 15.1719 13.3027C14.9987 13.5625 14.8688 13.8906 14.7822 14.2871C14.7002 14.679 14.6592 15.1393 14.6592 15.668V16.3721C14.6592 16.887 14.6979 17.3405 14.7754 17.7324C14.8529 18.1198 14.9714 18.4479 15.1309 18.7168C15.2949 18.9811 15.5046 19.1816 15.7598 19.3184C16.0195 19.4505 16.3317 19.5166 16.6963 19.5166C17.1247 19.5166 17.4779 19.4482 17.7559 19.3115C18.0339 19.1748 18.2458 18.972 18.3916 18.7031C18.542 18.4342 18.6309 18.0993 18.6582 17.6982ZM26.9023 13.6035V15.1484H23.3203V13.6035H26.9023ZM23.8877 13.6035V21H21.9189V13.6035H23.8877ZM28.3379 13.6035V21H26.3623V13.6035H28.3379ZM31.8174 18.252L34.2988 13.6035H36.2676V21H34.2988V16.3447L31.8174 21H29.8486V13.6035H31.8174V18.252ZM40.8408 19.5986C41.0824 19.5986 41.2965 19.5531 41.4834 19.4619C41.6702 19.3662 41.8161 19.234 41.9209 19.0654C42.0303 18.8923 42.0872 18.6895 42.0918 18.457H43.9443C43.9398 18.9766 43.8008 19.4391 43.5273 19.8447C43.2539 20.2458 42.887 20.5625 42.4268 20.7949C41.9665 21.0228 41.4515 21.1367 40.8818 21.1367C40.3076 21.1367 39.8063 21.041 39.3779 20.8496C38.9541 20.6582 38.6009 20.3939 38.3184 20.0566C38.0358 19.7148 37.8239 19.3184 37.6826 18.8672C37.5413 18.4115 37.4707 17.9238 37.4707 17.4043V17.2061C37.4707 16.682 37.5413 16.1943 37.6826 15.7432C37.8239 15.2874 38.0358 14.891 38.3184 14.5537C38.6009 14.2119 38.9541 13.9453 39.3779 13.7539C39.8018 13.5625 40.2985 13.4668 40.8682 13.4668C41.4743 13.4668 42.0052 13.583 42.4609 13.8154C42.9212 14.0479 43.2812 14.3805 43.541 14.8135C43.8053 15.2419 43.9398 15.75 43.9443 16.3379H42.0918C42.0872 16.0918 42.0348 15.8685 41.9346 15.668C41.8389 15.4674 41.6976 15.3079 41.5107 15.1895C41.3285 15.0664 41.1029 15.0049 40.834 15.0049C40.5469 15.0049 40.3122 15.0664 40.1299 15.1895C39.9476 15.3079 39.8063 15.472 39.7061 15.6816C39.6058 15.8867 39.5352 16.1214 39.4941 16.3857C39.4577 16.6455 39.4395 16.9189 39.4395 17.2061V17.4043C39.4395 17.6914 39.4577 17.9671 39.4941 18.2314C39.5306 18.4958 39.599 18.7305 39.6992 18.9355C39.804 19.1406 39.9476 19.3024 40.1299 19.4209C40.3122 19.5394 40.5492 19.5986 40.8408 19.5986ZM44.7715 17.377V17.2334C44.7715 16.6911 44.849 16.1921 45.0039 15.7363C45.1589 15.276 45.3844 14.8773 45.6807 14.54C45.9769 14.2028 46.3415 13.9408 46.7744 13.7539C47.2074 13.5625 47.7041 13.4668 48.2646 13.4668C48.8252 13.4668 49.3242 13.5625 49.7617 13.7539C50.1992 13.9408 50.5661 14.2028 50.8623 14.54C51.1631 14.8773 51.391 15.276 51.5459 15.7363C51.7008 16.1921 51.7783 16.6911 51.7783 17.2334V17.377C51.7783 17.9147 51.7008 18.4137 51.5459 18.874C51.391 19.3298 51.1631 19.7285 50.8623 20.0703C50.5661 20.4076 50.2015 20.6696 49.7686 20.8564C49.3356 21.0433 48.8389 21.1367 48.2783 21.1367C47.7178 21.1367 47.2188 21.0433 46.7812 20.8564C46.3483 20.6696 45.9814 20.4076 45.6807 20.0703C45.3844 19.7285 45.1589 19.3298 45.0039 18.874C44.849 18.4137 44.7715 17.9147 44.7715 17.377ZM46.7402 17.2334V17.377C46.7402 17.6868 46.7676 17.9762 46.8223 18.2451C46.877 18.514 46.9635 18.751 47.082 18.9561C47.2051 19.1566 47.3646 19.3138 47.5605 19.4277C47.7565 19.5417 47.9958 19.5986 48.2783 19.5986C48.5518 19.5986 48.7865 19.5417 48.9824 19.4277C49.1784 19.3138 49.3356 19.1566 49.4541 18.9561C49.5726 18.751 49.6592 18.514 49.7139 18.2451C49.7731 17.9762 49.8027 17.6868 49.8027 17.377V17.2334C49.8027 16.9326 49.7731 16.6501 49.7139 16.3857C49.6592 16.1169 49.5703 15.8799 49.4473 15.6748C49.3288 15.4652 49.1715 15.3011 48.9756 15.1826C48.7796 15.0641 48.5426 15.0049 48.2646 15.0049C47.9867 15.0049 47.7497 15.0641 47.5537 15.1826C47.3623 15.3011 47.2051 15.4652 47.082 15.6748C46.9635 15.8799 46.877 16.1169 46.8223 16.3857C46.7676 16.6501 46.7402 16.9326 46.7402 17.2334ZM55.0869 13.6035V21H53.1182V13.6035H55.0869ZM59.8926 13.6035L56.707 18.2314H54.7383L54.499 16.4131H55.8047L57.3975 13.6035H59.8926ZM57.4863 21L55.668 17.876L57.3838 16.9258L60.125 21H57.4863Z" fill="#FCFCFC"/>
<path fill-rule="evenodd" clip-rule="evenodd" d="M67.5 13C67.8315 13 68.1495 12.8683 68.3839 12.6339C68.6183 12.3995 68.75 12.0815 68.75 11.75C68.75 11.4185 68.6183 11.1005 68.3839 10.8661C68.1495 10.6317 67.8315 10.5 67.5 10.5C67.1685 10.5 66.8505 10.6317 66.6161 10.8661C66.3817 11.1005 66.25 11.4185 66.25 11.75C66.25 12.0815 66.3817 12.3995 66.6161 12.6339C66.8505 12.8683 67.1685 13 67.5 13ZM70.75 11C70.5511 11 70.3603 11.079 70.2197 11.2197C70.079 11.3603 70 11.5511 70 11.75C70 11.9489 70.079 12.1397 70.2197 12.2803C70.3603 12.421 70.5511 12.5 70.75 12.5H79.25C79.4489 12.5 79.6397 12.421 79.7803 12.2803C79.921 12.1397 80 11.9489 80 11.75C80 11.5511 79.921 11.3603 79.7803 11.2197C79.6397 11.079 79.4489 11 79.25 11H70.75ZM70.75 19.5C70.5511 19.5 70.3603 19.579 70.2197 19.7197C70.079 19.8603 70 20.0511 70 20.25C70 20.4489 70.079 20.6397 70.2197 20.7803C70.3603 20.921 70.5511 21 70.75 21H79.25C79.4489 21 79.6397 20.921 79.7803 20.7803C79.921 20.6397 80 20.4489 80 20.25C80 20.0511 79.921 19.8603 79.7803 19.7197C79.6397 19.579 79.4489 19.5 79.25 19.5H70.75ZM70 16C70 15.8011 70.079 15.6103 70.2197 15.4697C70.3603 15.329 70.5511 15.25 70.75 15.25H79.25C79.4489 15.25 79.6397 15.329 79.7803 15.4697C79.921 15.6103 80 15.8011 80 16C80 16.1989 79.921 16.3897 79.7803 16.5303C79.6397 16.671 79.4489 16.75 79.25 16.75H70.75C70.5511 16.75 70.3603 16.671 70.2197 16.5303C70.079 16.3897 70 16.1989 70 16ZM68.75 16C68.75 16.3315 68.6183 16.6495 68.3839 16.8839C68.1495 17.1183 67.8315 17.25 67.5 17.25C67.1685 17.25 66.8505 17.1183 66.6161 16.8839C66.3817 16.6495 66.25 16.3315 66.25 16C66.25 15.6685 66.3817 15.3505 66.6161 15.1161C66.8505 14.8817 67.1685 14.75 67.5 14.75C67.8315 14.75 68.1495 14.8817 68.3839 15.1161C68.6183 15.3505 68.75 15.6685 68.75 16ZM67.5 21.5C67.8315 21.5 68.1495 21.3683 68.3839 21.1339C68.6183 20.8995 68.75 20.5815 68.75 20.25C68.75 19.9185 68.6183 19.6005 68.3839 19.3661C68.1495 19.1317 67.8315 19 67.5 19C67.1685 19 66.8505 19.1317 66.6161 19.3661C66.3817 19.6005 66.25 19.9185 66.25 20.25C66.25 20.5815 66.3817 20.8995 66.6161 21.1339C66.8505 21.3683 67.1685 21.5 67.5 21.5Z" fill="#FCFCFC"/>
</svg>
