<svg width="12" height="12" viewBox="0 0 12 12" fill="none" xmlns="http://www.w3.org/2000/svg">
<path d="M2.25 2.25H9.75L10.5 5.25L6.75 9.375H5.25L1.5 5.25L2.25 2.25Z" fill="#1867D1"/>
<path d="M5.99828 2.29755C5.45348 1.79661 4.74039 1.51858 4.00028 1.51855C3.60855 1.51896 3.22077 1.59683 2.85925 1.74769C2.49773 1.89854 2.16961 2.1194 1.89378 2.39755C0.717281 3.57906 0.717781 5.42706 1.89478 6.60356L5.56078 10.2696C5.64578 10.4191 5.80978 10.5156 5.99828 10.5156C6.07568 10.5148 6.15183 10.4959 6.2206 10.4604C6.28937 10.4249 6.34886 10.3737 6.39428 10.3111L10.1018 6.60356C11.2788 5.42656 11.2788 3.57906 10.1008 2.39555C9.82509 2.11791 9.49723 1.8975 9.13607 1.747C8.7749 1.59649 8.38755 1.51885 7.99628 1.51855C7.2562 1.51868 6.54313 1.79669 5.99828 2.29755ZM9.39378 3.10255C10.1753 3.88805 10.1758 5.11506 9.39478 5.89656L5.99828 9.29306L2.60178 5.89656C1.82078 5.11506 1.82128 3.88806 2.60078 3.10456C2.98078 2.72655 3.47778 2.51855 4.00028 2.51855C4.52278 2.51855 5.01778 2.72655 5.39478 3.10355L5.64478 3.35355C5.69118 3.40003 5.74628 3.4369 5.80694 3.46205C5.86759 3.48721 5.93262 3.50016 5.99828 3.50016C6.06395 3.50016 6.12897 3.48721 6.18963 3.46205C6.25029 3.4369 6.30539 3.40003 6.35178 3.35355L6.60178 3.10355C7.35778 2.34905 8.63878 2.35105 9.39378 3.10255Z" fill="#1867D1"/>
</svg>
