<svg width="40" height="36" viewBox="0 0 40 36" fill="none" xmlns="http://www.w3.org/2000/svg">
<rect width="40" height="36" rx="6" fill="#E5F0FF"/>
<path d="M17.9998 13.333C17.823 13.333 17.6535 13.4033 17.5284 13.5283C17.4034 13.6533 17.3332 13.8229 17.3332 13.9997C17.3332 14.1765 17.4034 14.3461 17.5284 14.4711C17.6535 14.5961 17.823 14.6663 17.9998 14.6663C18.1766 14.6663 18.3462 14.5961 18.4712 14.4711C18.5963 14.3461 18.6665 14.1765 18.6665 13.9997C18.6665 13.8229 18.5963 13.6533 18.4712 13.5283C18.3462 13.4033 18.1766 13.333 17.9998 13.333ZM16.1132 13.333C16.2509 12.9427 16.5063 12.6046 16.8442 12.3655C17.1821 12.1264 17.5859 11.998 17.9998 11.998C18.4138 11.998 18.8175 12.1264 19.1554 12.3655C19.4933 12.6046 19.7488 12.9427 19.8865 13.333H24.6665C24.8433 13.333 25.0129 13.4033 25.1379 13.5283C25.2629 13.6533 25.3332 13.8229 25.3332 13.9997C25.3332 14.1765 25.2629 14.3461 25.1379 14.4711C25.0129 14.5961 24.8433 14.6663 24.6665 14.6663H19.8865C19.7488 15.0567 19.4933 15.3947 19.1554 15.6338C18.8175 15.8729 18.4138 16.0013 17.9998 16.0013C17.5859 16.0013 17.1821 15.8729 16.8442 15.6338C16.5063 15.3947 16.2509 15.0567 16.1132 14.6663H15.3332C15.1564 14.6663 14.9868 14.5961 14.8618 14.4711C14.7367 14.3461 14.6665 14.1765 14.6665 13.9997C14.6665 13.8229 14.7367 13.6533 14.8618 13.5283C14.9868 13.4033 15.1564 13.333 15.3332 13.333H16.1132ZM21.9998 17.333C21.823 17.333 21.6535 17.4033 21.5284 17.5283C21.4034 17.6533 21.3332 17.8229 21.3332 17.9997C21.3332 18.1765 21.4034 18.3461 21.5284 18.4711C21.6535 18.5961 21.823 18.6663 21.9998 18.6663C22.1766 18.6663 22.3462 18.5961 22.4712 18.4711C22.5963 18.3461 22.6665 18.1765 22.6665 17.9997C22.6665 17.8229 22.5963 17.6533 22.4712 17.5283C22.3462 17.4033 22.1766 17.333 21.9998 17.333ZM20.1132 17.333C20.2509 16.9427 20.5063 16.6046 20.8442 16.3655C21.1821 16.1264 21.5859 15.998 21.9998 15.998C22.4138 15.998 22.8175 16.1264 23.1554 16.3655C23.4933 16.6046 23.7488 16.9427 23.8865 17.333H24.6665C24.8433 17.333 25.0129 17.4033 25.1379 17.5283C25.2629 17.6533 25.3332 17.8229 25.3332 17.9997C25.3332 18.1765 25.2629 18.3461 25.1379 18.4711C25.0129 18.5961 24.8433 18.6663 24.6665 18.6663H23.8865C23.7488 19.0567 23.4933 19.3947 23.1554 19.6338C22.8175 19.8729 22.4138 20.0013 21.9998 20.0013C21.5859 20.0013 21.1821 19.8729 20.8442 19.6338C20.5063 19.3947 20.2509 19.0567 20.1132 18.6663H15.3332C15.1564 18.6663 14.9868 18.5961 14.8618 18.4711C14.7367 18.3461 14.6665 18.1765 14.6665 17.9997C14.6665 17.8229 14.7367 17.6533 14.8618 17.5283C14.9868 17.4033 15.1564 17.333 15.3332 17.333H20.1132ZM17.9998 21.333C17.823 21.333 17.6535 21.4033 17.5284 21.5283C17.4034 21.6533 17.3332 21.8229 17.3332 21.9997C17.3332 22.1765 17.4034 22.3461 17.5284 22.4711C17.6535 22.5961 17.823 22.6663 17.9998 22.6663C18.1766 22.6663 18.3462 22.5961 18.4712 22.4711C18.5963 22.3461 18.6665 22.1765 18.6665 21.9997C18.6665 21.8229 18.5963 21.6533 18.4712 21.5283C18.3462 21.4033 18.1766 21.333 17.9998 21.333ZM16.1132 21.333C16.2509 20.9427 16.5063 20.6046 16.8442 20.3655C17.1821 20.1264 17.5859 19.998 17.9998 19.998C18.4138 19.998 18.8175 20.1264 19.1554 20.3655C19.4933 20.6046 19.7488 20.9427 19.8865 21.333H24.6665C24.8433 21.333 25.0129 21.4033 25.1379 21.5283C25.2629 21.6533 25.3332 21.8229 25.3332 21.9997C25.3332 22.1765 25.2629 22.3461 25.1379 22.4711C25.0129 22.5961 24.8433 22.6663 24.6665 22.6663H19.8865C19.7488 23.0567 19.4933 23.3947 19.1554 23.6338C18.8175 23.8729 18.4138 24.0013 17.9998 24.0013C17.5859 24.0013 17.1821 23.8729 16.8442 23.6338C16.5063 23.3947 16.2509 23.0567 16.1132 22.6663H15.3332C15.1564 22.6663 14.9868 22.5961 14.8618 22.4711C14.7367 22.3461 14.6665 22.1765 14.6665 21.9997C14.6665 21.8229 14.7367 21.6533 14.8618 21.5283C14.9868 21.4033 15.1564 21.333 15.3332 21.333H16.1132Z" fill="#1478FF"/>
</svg>
