<svg width="83" height="32" viewBox="0 0 83 32" fill="none" xmlns="http://www.w3.org/2000/svg">
<rect width="83" height="32" rx="16" fill="#515151" fill-opacity="0.95"/>
<path d="M14.9463 11.0469V21H12.8955V11.0469H14.9463ZM20.8115 11.0469L16.9971 16.8916H14.4883L14.2285 15.0664H15.9033L18.3232 11.0469H20.8115ZM18.6992 21L15.9102 16.5498L17.332 15.0869L21.1328 21H18.6992ZM25.8086 19.332V16.0371C25.8086 15.8001 25.7699 15.5973 25.6924 15.4287C25.6149 15.2555 25.4941 15.1211 25.3301 15.0254C25.1706 14.9297 24.9632 14.8818 24.708 14.8818C24.4893 14.8818 24.3001 14.9206 24.1406 14.998C23.9811 15.071 23.8581 15.1781 23.7715 15.3193C23.6849 15.4561 23.6416 15.6178 23.6416 15.8047H21.6729C21.6729 15.4902 21.7458 15.1917 21.8916 14.9092C22.0374 14.6266 22.2493 14.3783 22.5273 14.1641C22.8053 13.9453 23.1357 13.7744 23.5186 13.6514C23.9059 13.5283 24.3389 13.4668 24.8174 13.4668C25.3916 13.4668 25.902 13.5625 26.3486 13.7539C26.7952 13.9453 27.1462 14.2324 27.4014 14.6152C27.6611 14.998 27.791 15.4766 27.791 16.0508V19.2158C27.791 19.6214 27.8161 19.9541 27.8662 20.2139C27.9163 20.4691 27.9893 20.6924 28.085 20.8838V21H26.0957C26 20.7995 25.9271 20.5488 25.877 20.248C25.8314 19.9427 25.8086 19.6374 25.8086 19.332ZM26.0684 16.4951L26.082 17.6094H24.9814C24.7217 17.6094 24.4961 17.639 24.3047 17.6982C24.1133 17.7575 23.9561 17.8418 23.833 17.9512C23.71 18.056 23.6188 18.179 23.5596 18.3203C23.5049 18.4616 23.4775 18.6165 23.4775 18.7852C23.4775 18.9538 23.5163 19.1064 23.5938 19.2432C23.6712 19.3753 23.7829 19.4801 23.9287 19.5576C24.0745 19.6305 24.2454 19.667 24.4414 19.667C24.7376 19.667 24.9951 19.6077 25.2139 19.4893C25.4326 19.3708 25.6012 19.2249 25.7197 19.0518C25.8428 18.8786 25.9066 18.7145 25.9111 18.5596L26.4307 19.3936C26.3577 19.5804 26.2575 19.7741 26.1299 19.9746C26.0068 20.1751 25.8496 20.3643 25.6582 20.542C25.4668 20.7152 25.2367 20.8587 24.9678 20.9727C24.6989 21.082 24.3799 21.1367 24.0107 21.1367C23.5413 21.1367 23.1152 21.0433 22.7324 20.8564C22.3542 20.665 22.0534 20.403 21.8301 20.0703C21.6113 19.7331 21.502 19.3503 21.502 18.9219C21.502 18.5345 21.5749 18.1904 21.7207 17.8896C21.8665 17.5889 22.0807 17.3359 22.3633 17.1309C22.6504 16.9212 23.0081 16.764 23.4365 16.6592C23.8649 16.5498 24.3617 16.4951 24.9268 16.4951H26.0684ZM31.2773 15.0254V23.8438H29.3086V13.6035H31.1338L31.2773 15.0254ZM35.96 17.2197V17.3633C35.96 17.901 35.8962 18.4001 35.7686 18.8604C35.6455 19.3206 35.4632 19.7217 35.2217 20.0635C34.9801 20.4007 34.6794 20.665 34.3193 20.8564C33.9639 21.0433 33.5537 21.1367 33.0889 21.1367C32.6377 21.1367 32.2458 21.0456 31.9131 20.8633C31.5804 20.681 31.3001 20.4258 31.0723 20.0977C30.849 19.765 30.6689 19.3799 30.5322 18.9424C30.3955 18.5049 30.2907 18.0355 30.2178 17.5342V17.1582C30.2907 16.6204 30.3955 16.1283 30.5322 15.6816C30.6689 15.2305 30.849 14.8408 31.0723 14.5127C31.3001 14.18 31.5781 13.9225 31.9062 13.7402C32.2389 13.5579 32.6286 13.4668 33.0752 13.4668C33.5446 13.4668 33.957 13.5557 34.3125 13.7334C34.6725 13.9111 34.9733 14.1663 35.2148 14.499C35.4609 14.8317 35.6455 15.2282 35.7686 15.6885C35.8962 16.1488 35.96 16.6592 35.96 17.2197ZM33.9844 17.3633V17.2197C33.9844 16.9053 33.957 16.6159 33.9023 16.3516C33.8522 16.0827 33.7702 15.848 33.6562 15.6475C33.5469 15.4469 33.401 15.292 33.2188 15.1826C33.041 15.0687 32.8245 15.0117 32.5693 15.0117C32.3005 15.0117 32.0703 15.055 31.8789 15.1416C31.6921 15.2282 31.5394 15.3535 31.4209 15.5176C31.3024 15.6816 31.2135 15.8776 31.1543 16.1055C31.0951 16.3333 31.0586 16.5908 31.0449 16.8779V17.8281C31.0677 18.1654 31.1315 18.4684 31.2363 18.7373C31.3411 19.0016 31.5029 19.2113 31.7217 19.3662C31.9404 19.5212 32.2275 19.5986 32.583 19.5986C32.8428 19.5986 33.0615 19.5417 33.2393 19.4277C33.417 19.3092 33.5605 19.1475 33.6699 18.9424C33.7839 18.7373 33.8636 18.5003 33.9092 18.2314C33.9593 17.9626 33.9844 17.6732 33.9844 17.3633ZM40.5811 13.6035V21H38.6055V13.6035H40.5811ZM42.96 13.6035V15.1279H36.2607V13.6035H42.96ZM47.8477 19.332V16.0371C47.8477 15.8001 47.8089 15.5973 47.7314 15.4287C47.654 15.2555 47.5332 15.1211 47.3691 15.0254C47.2096 14.9297 47.0023 14.8818 46.7471 14.8818C46.5283 14.8818 46.3392 14.9206 46.1797 14.998C46.0202 15.071 45.8971 15.1781 45.8105 15.3193C45.724 15.4561 45.6807 15.6178 45.6807 15.8047H43.7119C43.7119 15.4902 43.7848 15.1917 43.9307 14.9092C44.0765 14.6266 44.2884 14.3783 44.5664 14.1641C44.8444 13.9453 45.1748 13.7744 45.5576 13.6514C45.945 13.5283 46.3779 13.4668 46.8564 13.4668C47.4307 13.4668 47.9411 13.5625 48.3877 13.7539C48.8343 13.9453 49.1852 14.2324 49.4404 14.6152C49.7002 14.998 49.8301 15.4766 49.8301 16.0508V19.2158C49.8301 19.6214 49.8551 19.9541 49.9053 20.2139C49.9554 20.4691 50.0283 20.6924 50.124 20.8838V21H48.1348C48.0391 20.7995 47.9661 20.5488 47.916 20.248C47.8704 19.9427 47.8477 19.6374 47.8477 19.332ZM48.1074 16.4951L48.1211 17.6094H47.0205C46.7607 17.6094 46.5352 17.639 46.3438 17.6982C46.1523 17.7575 45.9951 17.8418 45.8721 17.9512C45.749 18.056 45.6579 18.179 45.5986 18.3203C45.5439 18.4616 45.5166 18.6165 45.5166 18.7852C45.5166 18.9538 45.5553 19.1064 45.6328 19.2432C45.7103 19.3753 45.8219 19.4801 45.9678 19.5576C46.1136 19.6305 46.2845 19.667 46.4805 19.667C46.7767 19.667 47.0342 19.6077 47.2529 19.4893C47.4717 19.3708 47.6403 19.2249 47.7588 19.0518C47.8818 18.8786 47.9456 18.7145 47.9502 18.5596L48.4697 19.3936C48.3968 19.5804 48.2965 19.7741 48.1689 19.9746C48.0459 20.1751 47.8887 20.3643 47.6973 20.542C47.5059 20.7152 47.2757 20.8587 47.0068 20.9727C46.738 21.082 46.4189 21.1367 46.0498 21.1367C45.5804 21.1367 45.1543 21.0433 44.7715 20.8564C44.3932 20.665 44.0924 20.403 43.8691 20.0703C43.6504 19.7331 43.541 19.3503 43.541 18.9219C43.541 18.5345 43.6139 18.1904 43.7598 17.8896C43.9056 17.5889 44.1198 17.3359 44.4023 17.1309C44.6895 16.9212 45.0472 16.764 45.4756 16.6592C45.904 16.5498 46.4007 16.4951 46.9658 16.4951H48.1074Z" fill="#FCFCFC"/>
<path d="M68.6667 10L68.56 10.02L65 11.4L61 10L57.24 11.2667C57.1 11.3133 57 11.4333 57 11.5867V21.6667C57 21.8533 57.1467 22 57.3333 22L57.44 21.98L61 20.6L65 22L68.76 20.7333C68.9 20.6867 69 20.5667 69 20.4133V10.3333C69 10.1467 68.8533 10 68.6667 10ZM65 20.6667L61 19.26V11.3333L65 12.74V20.6667Z" fill="#FCFCFC"/>
</svg>
