<svg width="12" height="12" viewBox="0 0 12 12" fill="none" xmlns="http://www.w3.org/2000/svg">
<path d="M6.00024 2.29755C5.45544 1.79661 4.74234 1.51858 4.00223 1.51855C3.6105 1.51896 3.22272 1.59683 2.8612 1.74769C2.49968 1.89854 2.17157 2.1194 1.89573 2.39755C0.719234 3.57905 0.719734 5.42706 1.89673 6.60356L5.56274 10.2696C5.64774 10.4191 5.81174 10.5156 6.00024 10.5156C6.07763 10.5148 6.15378 10.4959 6.22255 10.4604C6.29133 10.4249 6.35081 10.3737 6.39624 10.3111L10.1037 6.60356C11.2807 5.42656 11.2807 3.57905 10.1027 2.39555C9.82704 2.11791 9.49919 1.8975 9.13802 1.747C8.77686 1.59649 8.38951 1.51885 7.99824 1.51855C7.25815 1.51868 6.54509 1.79669 6.00024 2.29755ZM9.39574 3.10255C10.1772 3.88805 10.1777 5.11506 9.39674 5.89656L6.00024 9.29306L2.60373 5.89656C1.82273 5.11506 1.82323 3.88806 2.60273 3.10455C2.98273 2.72655 3.47973 2.51855 4.00223 2.51855C4.52473 2.51855 5.01974 2.72655 5.39674 3.10355L5.64674 3.35355C5.69313 3.40003 5.74823 3.4369 5.80889 3.46205C5.86955 3.48721 5.93457 3.50016 6.00024 3.50016C6.0659 3.50016 6.13092 3.48721 6.19158 3.46205C6.25224 3.4369 6.30734 3.40003 6.35374 3.35355L6.60374 3.10355C7.35974 2.34905 8.64074 2.35105 9.39574 3.10255Z" fill="#1867D1" stroke="#1867D1" stroke-width="0.322632"/>
</svg>
