<svg width="33" height="29" viewBox="0 0 33 29" fill="none" xmlns="http://www.w3.org/2000/svg">
<path d="M28.5 12.25C28.1022 12.25 27.7206 12.408 27.4393 12.6893C27.158 12.9706 27 13.3522 27 13.75V24.25C27 24.6478 26.842 25.0294 26.5607 25.3107C26.2794 25.592 25.8978 25.75 25.5 25.75H4.5C4.10218 25.75 3.72064 25.592 3.43934 25.3107C3.15804 25.0294 3 24.6478 3 24.25V12.25C3 11.8522 3.15804 11.4706 3.43934 11.1893C3.72064 10.908 4.10218 10.75 4.5 10.75H7.5C7.8271 10.7671 8.1508 10.6766 8.42165 10.4924C8.69251 10.3082 8.89563 10.0405 9 9.73L9.81 7.27C9.91063 6.97207 10.1023 6.7133 10.3581 6.53026C10.6138 6.34723 10.9205 6.24919 11.235 6.25H19.5C19.8978 6.25 20.2794 6.09196 20.5607 5.81066C20.842 5.52936 21 5.14782 21 4.75C21 4.35218 20.842 3.97064 20.5607 3.68934C20.2794 3.40804 19.8978 3.25 19.5 3.25H11.16C10.2173 3.25176 9.299 3.54952 8.53465 4.10126C7.7703 4.65299 7.19851 5.43083 6.9 6.325L6.42 7.825H4.5C3.30653 7.825 2.16193 8.29911 1.31802 9.14302C0.474106 9.98693 0 11.1315 0 12.325V24.325C0 25.5185 0.474106 26.6631 1.31802 27.507C2.16193 28.3509 3.30653 28.825 4.5 28.825H25.5C26.6935 28.825 27.8381 28.3509 28.682 27.507C29.5259 26.6631 30 25.5185 30 24.325V13.825C30.0102 13.6218 29.9789 13.4187 29.9081 13.2279C29.8373 13.0372 29.7284 12.8628 29.5881 12.7155C29.4478 12.5682 29.2789 12.4509 29.0919 12.3709C28.9048 12.2909 28.7035 12.2497 28.5 12.25ZM15 10.75C13.8133 10.75 12.6533 11.1019 11.6666 11.7612C10.6799 12.4205 9.91085 13.3575 9.45672 14.4539C9.0026 15.5503 8.88378 16.7567 9.11529 17.9205C9.3468 19.0844 9.91824 20.1535 10.7574 20.9926C11.5965 21.8318 12.6656 22.4032 13.8295 22.6347C14.9933 22.8662 16.1997 22.7474 17.2961 22.2933C18.3925 21.8392 19.3295 21.0701 19.9888 20.0834C20.6481 19.0967 21 17.9367 21 16.75C21 15.1587 20.3679 13.6326 19.2426 12.5074C18.1174 11.3821 16.5913 10.75 15 10.75ZM15 19.75C14.4067 19.75 13.8266 19.5741 13.3333 19.2444C12.8399 18.9148 12.4554 18.4462 12.2284 17.8981C12.0013 17.3499 11.9419 16.7467 12.0576 16.1647C12.1734 15.5828 12.4591 15.0482 12.8787 14.6287C13.2982 14.2091 13.8328 13.9234 14.4147 13.8076C14.9967 13.6919 15.5999 13.7513 16.1481 13.9784C16.6962 14.2054 17.1648 14.5899 17.4944 15.0833C17.8241 15.5766 18 16.1567 18 16.75C18 17.5456 17.6839 18.3087 17.1213 18.8713C16.5587 19.4339 15.7956 19.75 15 19.75ZM31.5 3.25H30V1.75C30 1.35218 29.842 0.970644 29.5607 0.68934C29.2794 0.408035 28.8978 0.25 28.5 0.25C28.1022 0.25 27.7206 0.408035 27.4393 0.68934C27.158 0.970644 27 1.35218 27 1.75V3.25H25.5C25.1022 3.25 24.7206 3.40804 24.4393 3.68934C24.158 3.97064 24 4.35218 24 4.75C24 5.14782 24.158 5.52936 24.4393 5.81066C24.7206 6.09196 25.1022 6.25 25.5 6.25H27V7.75C27 8.14782 27.158 8.52936 27.4393 8.81066C27.7206 9.09196 28.1022 9.25 28.5 9.25C28.8978 9.25 29.2794 9.09196 29.5607 8.81066C29.842 8.52936 30 8.14782 30 7.75V6.25H31.5C31.8978 6.25 32.2794 6.09196 32.5607 5.81066C32.842 5.52936 33 5.14782 33 4.75C33 4.35218 32.842 3.97064 32.5607 3.68934C32.2794 3.40804 31.8978 3.25 31.5 3.25Z" fill="#1478FF" fill-opacity="0.3"/>
</svg>
