<svg width="20" height="20" viewBox="0 0 20 20" fill="none" xmlns="http://www.w3.org/2000/svg">
<rect width="20" height="20" rx="10" fill="#FCFCFC" fill-opacity="0.8"/>
<path d="M6.66667 10.3333C6.66667 10.687 6.52619 11.0261 6.27614 11.2761C6.02609 11.5262 5.68696 11.6667 5.33333 11.6667C4.97971 11.6667 4.64057 11.5262 4.39052 11.2761C4.14048 11.0261 4 10.687 4 10.3333C4 9.97971 4.14048 9.64057 4.39052 9.39052C4.64057 9.14048 4.97971 9 5.33333 9C5.68696 9 6.02609 9.14048 6.27614 9.39052C6.52619 9.64057 6.66667 9.97971 6.66667 10.3333ZM11.3333 10.3333C11.3333 10.687 11.1929 11.0261 10.9428 11.2761C10.6928 11.5262 10.3536 11.6667 10 11.6667C9.64638 11.6667 9.30724 11.5262 9.05719 11.2761C8.80714 11.0261 8.66667 10.687 8.66667 10.3333C8.66667 9.97971 8.80714 9.64057 9.05719 9.39052C9.30724 9.14048 9.64638 9 10 9C10.3536 9 10.6928 9.14048 10.9428 9.39052C11.1929 9.64057 11.3333 9.97971 11.3333 10.3333ZM16 10.3333C16 10.687 15.8595 11.0261 15.6095 11.2761C15.3594 11.5262 15.0203 11.6667 14.6667 11.6667C14.313 11.6667 13.9739 11.5262 13.7239 11.2761C13.4738 11.0261 13.3333 10.687 13.3333 10.3333C13.3333 9.97971 13.4738 9.64057 13.7239 9.39052C13.9739 9.14048 14.313 9 14.6667 9C15.0203 9 15.3594 9.14048 15.6095 9.39052C15.8595 9.64057 16 9.97971 16 10.3333Z" fill="#1867D1"/>
</svg>
