<svg width="20" height="21" viewBox="0 0 20 21" fill="none" xmlns="http://www.w3.org/2000/svg">
<g id="icn_cross">
<path id="Vector" d="M11.5593 10.5L15.9237 6.13553C16.1309 5.92876 16.2474 5.64817 16.2476 5.35549C16.2479 5.06281 16.1319 4.78202 15.9251 4.57488C15.7183 4.36775 15.4378 4.25123 15.1451 4.25097C14.8524 4.25072 14.5716 4.36673 14.3645 4.57351L10 8.93798L5.63553 4.57351C5.42839 4.36637 5.14745 4.25 4.85452 4.25C4.56158 4.25 4.28064 4.36637 4.07351 4.57351C3.86637 4.78064 3.75 5.06158 3.75 5.35452C3.75 5.64745 3.86637 5.92839 4.07351 6.13553L8.43798 10.5L4.07351 14.8645C3.86637 15.0716 3.75 15.3525 3.75 15.6455C3.75 15.9384 3.86637 16.2194 4.07351 16.4265C4.28064 16.6336 4.56158 16.75 4.85452 16.75C5.14745 16.75 5.42839 16.6336 5.63553 16.4265L10 12.062L14.3645 16.4265C14.5716 16.6336 14.8525 16.75 15.1455 16.75C15.4384 16.75 15.7194 16.6336 15.9265 16.4265C16.1336 16.2194 16.25 15.9384 16.25 15.6455C16.25 15.3525 16.1336 15.0716 15.9265 14.8645L11.5593 10.5Z" fill="black"/>
</g>
</svg>
