<svg width="24" height="24" viewBox="0 0 24 24" fill="none" xmlns="http://www.w3.org/2000/svg">
<g clip-path="url(#clip0_343_7120)">
<path d="M23.7812 19.2812L16.5002 12.0002L23.7812 4.71924C23.9207 4.57801 23.999 4.3875 23.999 4.18899C23.999 3.99047 23.9207 3.79996 23.7812 3.65874L20.3417 0.219236C20.2722 0.149437 20.1896 0.0940549 20.0986 0.0562655C20.0076 0.0184761 19.91 -0.000976563 19.8115 -0.000976562C19.713 -0.000976562 19.6154 0.0184761 19.5244 0.0562655C19.4334 0.0940549 19.3508 0.149437 19.2812 0.219236L12.0002 7.50024L4.71924 0.219236C4.57859 0.0786331 4.38786 -0.000353434 4.18899 -0.000353434C3.99011 -0.000353434 3.79938 0.0786331 3.65874 0.219236L0.219236 3.65874C0.149437 3.72828 0.0940549 3.81091 0.0562655 3.90191C0.0184761 3.9929 -0.000976562 4.09046 -0.000976562 4.18899C-0.000976562 4.28751 0.0184761 4.38507 0.0562655 4.47607C0.0940549 4.56706 0.149437 4.6497 0.219236 4.71924L7.50024 12.0002L0.219236 19.2812C0.0786331 19.4219 -0.000353434 19.6126 -0.000353434 19.8115C-0.000353434 20.0104 0.0786331 20.2011 0.219236 20.3417L3.65874 23.7812C3.72828 23.851 3.81091 23.9064 3.90191 23.9442C3.9929 23.982 4.09046 24.0014 4.18899 24.0014C4.28751 24.0014 4.38507 23.982 4.47607 23.9442C4.56706 23.9064 4.6497 23.851 4.71924 23.7812L12.0002 16.5002L19.2812 23.7812C19.4219 23.9218 19.6126 24.0008 19.8115 24.0008C20.0104 24.0008 20.2011 23.9218 20.3417 23.7812L23.7812 20.3417C23.851 20.2722 23.9064 20.1896 23.9442 20.0986C23.982 20.0076 24.0014 19.91 24.0014 19.8115C24.0014 19.713 23.982 19.6154 23.9442 19.5244C23.9064 19.4334 23.851 19.3508 23.7812 19.2812Z" fill="#898989"/>
</g>
<defs>
<clipPath id="clip0_343_7120">
<rect width="24" height="24" fill="white"/>
</clipPath>
</defs>
</svg>
