<svg width="20" height="20" viewBox="0 0 20 20" fill="none" xmlns="http://www.w3.org/2000/svg">
<path d="M9.19593 4.07289L4.10515 9.17155C3.99262 9.28203 3.90329 9.41348 3.84234 9.55831C3.78138 9.70314 3.75 9.85848 3.75 10.0154C3.75 10.1723 3.78138 10.3276 3.84234 10.4724C3.90329 10.6173 3.99262 10.7487 4.10515 10.8592L9.19593 15.8984C9.30755 16.0098 9.44034 16.0983 9.58665 16.1586C9.73296 16.2189 9.88989 16.25 10.0484 16.25C10.2069 16.25 10.3638 16.2189 10.5101 16.1586C10.6564 16.0983 10.7892 16.0098 10.9009 15.8984C11.1245 15.6758 11.25 15.3745 11.25 15.0606C11.25 14.7466 11.1245 14.4453 10.9009 14.2227L6.65054 10.0154L10.9009 5.8081C11.1227 5.58673 11.2477 5.28794 11.249 4.97615C11.25 4.81973 11.2197 4.66468 11.1599 4.51987C11.1002 4.37507 11.0121 4.24337 10.9009 4.13231C10.7933 4.01694 10.6636 3.92382 10.5195 3.85832C10.3753 3.79283 10.2194 3.75626 10.0609 3.75074C9.90238 3.74521 9.74432 3.77084 9.59585 3.82613C9.44739 3.88142 9.31146 3.96529 9.19593 4.07289Z" fill="#1867D1"/>
<rect x="6.25" y="8.75" width="11.25" height="2.5" rx="1.25" fill="#1867D1"/>
</svg>
