<svg width="20" height="20" viewBox="0 0 20 20" fill="none" xmlns="http://www.w3.org/2000/svg">
<path d="M10.8041 15.9271L15.8948 10.8285C16.0074 10.718 16.0967 10.5865 16.1577 10.4417C16.2186 10.2969 16.25 10.1415 16.25 9.98462C16.25 9.82772 16.2186 9.67238 16.1577 9.52755C16.0967 9.38272 16.0074 9.25127 15.8948 9.14079L10.8041 4.10156C10.6925 3.99016 10.5597 3.90174 10.4134 3.8414C10.267 3.78106 10.1101 3.75 9.95161 3.75C9.79311 3.75 9.63617 3.78106 9.48986 3.8414C9.34355 3.90174 9.21076 3.99016 9.09914 4.10156C8.87552 4.32424 8.75 4.62546 8.75 4.93945C8.75 5.25343 8.87552 5.55466 9.09914 5.77734L13.3495 9.98462L9.09914 14.1919C8.87733 14.4133 8.75228 14.7121 8.75095 15.0239C8.75004 15.1803 8.78032 15.3353 8.84007 15.4801C8.89982 15.6249 8.98786 15.7566 9.09914 15.8677C9.20674 15.9831 9.33637 16.0762 9.48054 16.1417C9.62471 16.2072 9.78056 16.2437 9.93909 16.2493C10.0976 16.2548 10.2557 16.2292 10.4041 16.1739C10.5526 16.1186 10.6885 16.0347 10.8041 15.9271Z" fill="#1867D1"/>
<rect x="13.75" y="11.25" width="11.25" height="2.5" rx="1.25" transform="rotate(-180 13.75 11.25)" fill="#1867D1"/>
</svg>
