<svg width="16" height="16" viewBox="0 0 16 16" fill="none" xmlns="http://www.w3.org/2000/svg">
<path d="M12.7194 5.27585C12.5417 5.09917 12.3012 5 12.0506 5C11.8 5 11.5596 5.09917 11.3818 5.27585L7.97628 8.63398L4.61816 5.27585C4.44042 5.09917 4.19999 5 3.94938 5C3.69877 5 3.45834 5.09917 3.2806 5.27585C3.19169 5.36404 3.12112 5.46896 3.07296 5.58456C3.0248 5.70015 3 5.82415 3 5.94937C3 6.0746 3.0248 6.19859 3.07296 6.31419C3.12112 6.42979 3.19169 6.53471 3.2806 6.6229L7.30276 10.6451C7.39095 10.734 7.49587 10.8045 7.61147 10.8527C7.72706 10.9009 7.85105 10.9257 7.97628 10.9257C8.10151 10.9257 8.2255 10.9009 8.3411 10.8527C8.4567 10.8045 8.56162 10.734 8.64981 10.6451L12.7194 6.6229C12.8083 6.53471 12.8789 6.42979 12.927 6.31419C12.9752 6.19859 13 6.0746 13 5.94937C13 5.82415 12.9752 5.70015 12.927 5.58456C12.8789 5.46896 12.8083 5.36404 12.7194 5.27585Z" fill="#737A8E"/>
</svg>
