<svg width="16" height="16" viewBox="0 0 16 16" fill="none" xmlns="http://www.w3.org/2000/svg">
<path d="M2.67365 13.9453H13.3255C13.4985 13.9453 13.6686 13.9004 13.819 13.815C13.9695 13.7296 14.0952 13.6066 14.1839 13.458C14.2726 13.3095 14.3213 13.1405 14.3251 12.9675C14.3289 12.7946 14.2879 12.6236 14.2058 12.4712L8.88021 2.58062C8.5024 1.87937 7.49678 1.87937 7.11896 2.58062L1.79334 12.4712C1.71132 12.6236 1.67023 12.7946 1.67408 12.9675C1.67792 13.1405 1.72657 13.3095 1.81528 13.458C1.90398 13.6066 2.0297 13.7296 2.18016 13.815C2.33061 13.9004 2.50065 13.9453 2.67365 13.9453Z" fill="#E8EAF1" stroke="#737A8E" stroke-width="1.5" stroke-linecap="round" stroke-linejoin="round"/>
<path d="M7.82043 6.10587L7.99981 9.91837L8.17887 6.10743C8.17998 6.08307 8.1761 6.05874 8.16749 6.03592C8.15887 6.01311 8.14569 5.99229 8.12876 5.97474C8.11182 5.95719 8.09149 5.94328 8.06899 5.93385C8.0465 5.92443 8.02232 5.91969 7.99793 5.91993C7.97397 5.92016 7.9503 5.9252 7.92832 5.93473C7.90634 5.94426 7.88649 5.95811 7.86994 5.97544C7.8534 5.99277 7.84049 6.01324 7.83199 6.03564C7.82348 6.05804 7.81956 6.08192 7.82043 6.10587Z" stroke="#737A8E" stroke-width="1.7" stroke-linecap="round" stroke-linejoin="round"/>
<path d="M7.99922 12.8002C7.84099 12.8002 7.68632 12.7533 7.55476 12.6654C7.4232 12.5775 7.32067 12.4525 7.26012 12.3063C7.19957 12.1602 7.18372 11.9993 7.21459 11.8441C7.24546 11.6889 7.32165 11.5464 7.43353 11.4345C7.54542 11.3226 7.68796 11.2464 7.84315 11.2156C7.99833 11.1847 8.15918 11.2005 8.30537 11.2611C8.45155 11.3216 8.57649 11.4242 8.66439 11.5557C8.7523 11.6873 8.79922 11.842 8.79922 12.0002C8.79922 12.2124 8.71493 12.4159 8.5649 12.5659C8.41488 12.7159 8.21139 12.8002 7.99922 12.8002Z" fill="#737A8E"/>
</svg>
