<svg width="14" height="14" viewBox="0 0 14 14" fill="none" xmlns="http://www.w3.org/2000/svg">
<path d="M8.09149 7L11.1466 3.94487C11.2916 3.80013 11.3732 3.60372 11.3734 3.39884C11.3735 3.19397 11.2923 2.99741 11.1476 2.85242C11.0028 2.70742 10.8064 2.62586 10.6016 2.62568C10.3967 2.6255 10.2001 2.70671 10.0551 2.85145L7 5.90658L3.94487 2.85145C3.79987 2.70646 3.60322 2.625 3.39816 2.625C3.19311 2.625 2.99645 2.70646 2.85145 2.85145C2.70646 2.99645 2.625 3.19311 2.625 3.39816C2.625 3.60322 2.70646 3.79987 2.85145 3.94487L5.90658 7L2.85145 10.0551C2.70646 10.2001 2.625 10.3968 2.625 10.6018C2.625 10.8069 2.70646 11.0036 2.85145 11.1485C2.99645 11.2935 3.19311 11.375 3.39816 11.375C3.60322 11.375 3.79987 11.2935 3.94487 11.1485L7 8.09342L10.0551 11.1485C10.2001 11.2935 10.3968 11.375 10.6018 11.375C10.8069 11.375 11.0036 11.2935 11.1485 11.1485C11.2935 11.0036 11.375 10.8069 11.375 10.6018C11.375 10.3968 11.2935 10.2001 11.1485 10.0551L8.09149 7Z" fill="#1478FF" fill-opacity="0.3"/>
</svg>
