<svg width="16" height="16" viewBox="0 0 16 16" fill="none" xmlns="http://www.w3.org/2000/svg">
<path d="M12.7417 9.31263L8.66276 5.28124C8.57437 5.19213 8.46922 5.12139 8.35335 5.07312C8.23749 5.02485 8.11321 5 7.9877 5C7.86218 5 7.73791 5.02485 7.62204 5.07312C7.50618 5.12139 7.40102 5.19213 7.31263 5.28124L3.28124 9.31263C3.19213 9.40102 3.12139 9.50618 3.07312 9.62204C3.02485 9.73791 3 9.86218 3 9.9877C3 10.1132 3.02485 10.2375 3.07312 10.3534C3.12139 10.4692 3.19213 10.5744 3.28124 10.6628C3.45939 10.8399 3.70037 10.9392 3.95156 10.9392C4.20274 10.9392 4.44373 10.8399 4.62187 10.6628L7.9877 7.29694L11.3535 10.6628C11.5306 10.8384 11.7696 10.9374 12.0191 10.9385C12.1442 10.9392 12.2683 10.9152 12.3841 10.8679C12.4999 10.8206 12.6053 10.7509 12.6941 10.6628C12.7864 10.5776 12.8609 10.4749 12.9133 10.3607C12.9657 10.2466 12.995 10.1231 12.9994 9.99761C13.0038 9.87207 12.9833 9.7469 12.9391 9.62933C12.8949 9.51176 12.8278 9.40412 12.7417 9.31263Z" fill="#737A8E"/>
</svg>
