<svg width="20" height="20" viewBox="0 0 20 20" fill="none" xmlns="http://www.w3.org/2000/svg">
<path d="M11.5593 10L15.9237 5.63553C16.1309 5.42876 16.2474 5.14817 16.2476 4.85549C16.2479 4.56281 16.1319 4.28202 15.9251 4.07488C15.7183 3.86775 15.4378 3.75123 15.1451 3.75097C14.8524 3.75072 14.5716 3.86673 14.3645 4.07351L10 8.43798L5.63553 4.07351C5.42839 3.86637 5.14745 3.75 4.85452 3.75C4.56158 3.75 4.28064 3.86637 4.07351 4.07351C3.86637 4.28064 3.75 4.56158 3.75 4.85452C3.75 5.14745 3.86637 5.42839 4.07351 5.63553L8.43798 10L4.07351 14.3645C3.86637 14.5716 3.75 14.8525 3.75 15.1455C3.75 15.4384 3.86637 15.7194 4.07351 15.9265C4.28064 16.1336 4.56158 16.25 4.85452 16.25C5.14745 16.25 5.42839 16.1336 5.63553 15.9265L10 11.562L14.3645 15.9265C14.5716 16.1336 14.8525 16.25 15.1455 16.25C15.4384 16.25 15.7194 16.1336 15.9265 15.9265C16.1336 15.7194 16.25 15.4384 16.25 15.1455C16.25 14.8525 16.1336 14.5716 15.9265 14.3645L11.5593 10Z" fill="#737A8E"/>
</svg>
