<svg width="24" height="24" viewBox="0 0 24 24" fill="none" xmlns="http://www.w3.org/2000/svg">
<path d="M11.707 17.707C11.5195 17.8944 11.2652 17.9998 11 17.9998C10.7348 17.9998 10.4805 17.8944 10.293 17.707L5.793 13.207C5.60553 13.0194 5.50021 12.7651 5.50021 12.5C5.50021 12.2348 5.60553 11.9805 5.793 11.793L10.293 7.29297C10.4816 7.11081 10.7342 7.01002 10.9964 7.0123C11.2586 7.01457 11.5094 7.11974 11.6948 7.30515C11.8802 7.49056 11.9854 7.74137 11.9877 8.00357C11.99 8.26577 11.8892 8.51837 11.707 8.70697L9 11.5H18.5C18.7652 11.5 19.0196 11.6053 19.2071 11.7929C19.3946 11.9804 19.5 12.2348 19.5 12.5C19.5 12.7652 19.3946 13.0195 19.2071 13.2071C19.0196 13.3946 18.7652 13.5 18.5 13.5H9L11.707 16.293C11.8945 16.4805 11.9998 16.7348 11.9998 17C11.9998 17.2651 11.8945 17.5194 11.707 17.707Z" fill="#737A8E"/>
</svg>
