<svg width="16" height="16" viewBox="0 0 16 16" fill="none" xmlns="http://www.w3.org/2000/svg">
<path d="M3 3H13L14 7L9 12.5H7L2 7L3 3Z" fill="#1867D1"/>
<path d="M7.99982 3.06357C7.27343 2.39564 6.32263 2.02493 5.33582 2.0249C4.81352 2.02545 4.29647 2.12928 3.81445 2.33041C3.33242 2.53155 2.89493 2.82603 2.52716 3.1969C0.958491 4.77224 0.959158 7.23624 2.52849 8.8049L7.41649 13.6929C7.52982 13.8922 7.74849 14.0209 7.99982 14.0209C8.10302 14.0199 8.20455 13.9947 8.29625 13.9474C8.38795 13.9 8.46726 13.8318 8.52782 13.7482L13.4712 8.8049C15.0405 7.23557 15.0405 4.77224 13.4698 3.19424C13.1022 2.82405 12.6651 2.53017 12.1835 2.32949C11.702 2.12882 11.1855 2.0253 10.6638 2.0249C9.67704 2.02506 8.72629 2.39575 7.99982 3.06357ZM12.5272 4.1369C13.5692 5.18424 13.5698 6.82024 12.5285 7.86224L7.99982 12.3909L3.47116 7.86224C2.42982 6.82024 2.43049 5.18424 3.46982 4.13957C3.97649 3.63557 4.63916 3.35824 5.33582 3.35824C6.03249 3.35824 6.69249 3.63557 7.19516 4.13824L7.52849 4.47157C7.59035 4.53353 7.66382 4.58269 7.7447 4.61623C7.82557 4.64977 7.91227 4.66704 7.99982 4.66704C8.08738 4.66704 8.17408 4.64977 8.25495 4.61623C8.33583 4.58269 8.4093 4.53353 8.47116 4.47157L8.80449 4.13824C9.81249 3.13224 11.5205 3.1349 12.5272 4.1369Z" fill="#1867D1"/>
</svg>
