<svg width="14" height="14" viewBox="0 0 14 14" fill="none" xmlns="http://www.w3.org/2000/svg">
<path d="M7.00031 2.06357C6.27391 1.39564 5.32312 1.02493 4.33631 1.0249C3.81401 1.02545 3.29696 1.12928 2.81494 1.33041C2.33291 1.53155 1.89542 1.82603 1.52765 2.1969C-0.0410207 3.77224 -0.0403541 6.23624 1.52898 7.8049L6.41698 12.6929C6.53031 12.8922 6.74898 13.0209 7.00031 13.0209C7.10351 13.0199 7.20504 12.9947 7.29674 12.9474C7.38844 12.9 7.46775 12.8318 7.52831 12.7482L12.4716 7.8049C14.041 6.23557 14.041 3.77224 12.4703 2.19424C12.1027 1.82405 11.6656 1.53017 11.184 1.32949C10.7025 1.12882 10.186 1.0253 9.66431 1.0249C8.67753 1.02506 7.72678 1.39575 7.00031 2.06357ZM11.5276 3.1369C12.5696 4.18424 12.5703 5.82024 11.529 6.86224L7.00031 11.3909L2.47165 6.86224C1.43031 5.82024 1.43098 4.18424 2.47031 3.13957C2.97698 2.63557 3.63965 2.35824 4.33631 2.35824C5.03298 2.35824 5.69298 2.63557 6.19565 3.13824L6.52898 3.47157C6.59084 3.53353 6.66431 3.58269 6.74518 3.61623C6.82606 3.64977 6.91276 3.66704 7.00031 3.66704C7.08787 3.66704 7.17457 3.64977 7.25544 3.61623C7.33632 3.58269 7.40979 3.53353 7.47165 3.47157L7.80498 3.13824C8.81298 2.13224 10.521 2.1349 11.5276 3.1369Z" fill="#737A8E" stroke="#737A8E" stroke-width="0.5"/>
</svg>
