<svg width="16" height="16" viewBox="0 0 16 16" fill="none" xmlns="http://www.w3.org/2000/svg">
<path d="M2.66699 8.00065C2.66699 8.17746 2.73723 8.34703 2.86225 8.47205C2.98728 8.59708 3.15685 8.66732 3.33366 8.66732H8.39366L6.86033 10.194C6.79784 10.256 6.74824 10.3297 6.7144 10.4109C6.68055 10.4922 6.66313 10.5793 6.66313 10.6673C6.66313 10.7553 6.68055 10.8425 6.7144 10.9237C6.74824 11.0049 6.79784 11.0787 6.86033 11.1406C6.9223 11.2031 6.99604 11.2527 7.07727 11.2866C7.15851 11.3204 7.24565 11.3378 7.33366 11.3378C7.42167 11.3378 7.5088 11.3204 7.59004 11.2866C7.67128 11.2527 7.74502 11.2031 7.80699 11.1406L10.4737 8.47398C10.5344 8.41058 10.5819 8.33582 10.6137 8.25398C10.6803 8.09168 10.6803 7.90962 10.6137 7.74732C10.5819 7.66548 10.5344 7.59072 10.4737 7.52732L7.80699 4.86065C7.74483 4.79849 7.67104 4.74918 7.58983 4.71554C7.50861 4.6819 7.42157 4.66459 7.33366 4.66459C7.24575 4.66459 7.15871 4.6819 7.07749 4.71554C6.99628 4.74918 6.92248 4.79849 6.86033 4.86065C6.79817 4.92281 6.74886 4.9966 6.71522 5.07782C6.68158 5.15903 6.66426 5.24608 6.66426 5.33398C6.66426 5.42189 6.68158 5.50894 6.71522 5.59015C6.74886 5.67137 6.79817 5.74516 6.86033 5.80732L8.39366 7.33398H3.33366C3.15685 7.33398 2.98728 7.40422 2.86225 7.52925C2.73723 7.65427 2.66699 7.82384 2.66699 8.00065ZM11.3337 1.33398H4.66699C4.13656 1.33398 3.62785 1.5447 3.25278 1.91977C2.87771 2.29484 2.66699 2.80355 2.66699 3.33398V5.33398C2.66699 5.5108 2.73723 5.68036 2.86225 5.80539C2.98728 5.93041 3.15685 6.00065 3.33366 6.00065C3.51047 6.00065 3.68004 5.93041 3.80506 5.80539C3.93009 5.68036 4.00033 5.5108 4.00033 5.33398V3.33398C4.00033 3.15717 4.07056 2.9876 4.19559 2.86258C4.32061 2.73756 4.49018 2.66732 4.66699 2.66732H11.3337C11.5105 2.66732 11.68 2.73756 11.8051 2.86258C11.9301 2.9876 12.0003 3.15717 12.0003 3.33398V12.6673C12.0003 12.8441 11.9301 13.0137 11.8051 13.1387C11.68 13.2637 11.5105 13.334 11.3337 13.334H4.66699C4.49018 13.334 4.32061 13.2637 4.19559 13.1387C4.07056 13.0137 4.00033 12.8441 4.00033 12.6673V10.6673C4.00033 10.4905 3.93009 10.3209 3.80506 10.1959C3.68004 10.0709 3.51047 10.0007 3.33366 10.0007C3.15685 10.0007 2.98728 10.0709 2.86225 10.1959C2.73723 10.3209 2.66699 10.4905 2.66699 10.6673V12.6673C2.66699 13.1978 2.87771 13.7065 3.25278 14.0815C3.62785 14.4566 4.13656 14.6673 4.66699 14.6673H11.3337C11.8641 14.6673 12.3728 14.4566 12.7479 14.0815C13.1229 13.7065 13.3337 13.1978 13.3337 12.6673V3.33398C13.3337 2.80355 13.1229 2.29484 12.7479 1.91977C12.3728 1.5447 11.8641 1.33398 11.3337 1.33398Z" fill="#737A8E"/>
</svg>
