<svg width="14" height="13" viewBox="0 0 14 13" fill="none" xmlns="http://www.w3.org/2000/svg">
<path d="M6.99982 1.06357C6.27343 0.395638 5.32263 0.0249334 4.33582 0.0249023C3.81352 0.0254461 3.29647 0.129275 2.81445 0.330415C2.33242 0.531554 1.89493 0.826032 1.52716 1.1969C-0.041509 2.77224 -0.0408424 5.23624 1.52849 6.8049L6.41649 11.6929C6.52982 11.8922 6.74849 12.0209 6.99982 12.0209C7.10302 12.0199 7.20455 11.9947 7.29625 11.9474C7.38795 11.9 7.46726 11.8318 7.52782 11.7482L12.4712 6.8049C14.0405 5.23557 14.0405 2.77224 12.4698 1.19424C12.1022 0.824047 11.6651 0.530167 11.1835 0.329491C10.702 0.128815 10.1855 0.0253021 9.66383 0.0249023C8.67704 0.0250636 7.72629 0.395751 6.99982 1.06357ZM11.5272 2.1369C12.5692 3.18424 12.5698 4.82024 11.5285 5.86224L6.99982 10.3909L2.47116 5.86224C1.42982 4.82024 1.43049 3.18424 2.46982 2.13957C2.97649 1.63557 3.63916 1.35824 4.33582 1.35824C5.03249 1.35824 5.69249 1.63557 6.19516 2.13824L6.52849 2.47157C6.59035 2.53353 6.66382 2.58269 6.7447 2.61623C6.82557 2.64977 6.91227 2.66704 6.99982 2.66704C7.08738 2.66704 7.17408 2.64977 7.25495 2.61623C7.33583 2.58269 7.4093 2.53353 7.47116 2.47157L7.80449 2.13824C8.81249 1.13224 10.5205 1.1349 11.5272 2.1369Z" fill="#1867D1"/>
</svg>
