<svg width="24" height="24" viewBox="0 0 24 24" fill="none" xmlns="http://www.w3.org/2000/svg">
<path d="M15.136 2C16.1066 2.0022 17.0657 2.20974 17.9504 2.60899C18.8351 3.00825 19.6252 3.59017 20.269 4.31654C20.9127 5.0429 21.3955 5.89726 21.6856 6.82348C21.9756 7.7497 22.0665 8.72682 21.952 9.69063C21.8376 10.6544 21.5205 11.5831 21.0216 12.4157C20.5227 13.2482 19.8533 13.9658 19.0574 14.5212C18.2614 15.0766 17.357 15.4574 16.4034 15.6384C15.4499 15.8194 14.4688 15.7965 13.5247 15.5714L12.3587 16.7374C12.2717 16.8246 12.1684 16.8938 12.0546 16.941C11.9408 16.9882 11.8188 17.0126 11.6956 17.0126H10.7574V17.9509C10.7573 18.0741 10.733 18.1961 10.6858 18.3098C10.6385 18.4236 10.5693 18.527 10.4821 18.614L9.8566 19.2395C9.7696 19.3267 9.66625 19.3959 9.55248 19.4431C9.4387 19.4903 9.31673 19.5147 9.19354 19.5147H8.25525V20.453C8.25521 20.5762 8.23088 20.6982 8.18366 20.8119C8.13643 20.9257 8.06723 21.0291 7.98002 21.1161L7.3545 21.7416C7.26749 21.8288 7.16415 21.898 7.05037 21.9452C6.9366 21.9924 6.81463 22.0168 6.69144 22.0168H4.18934C3.60869 22.0168 3.05182 21.7862 2.64124 21.3756C2.23066 20.965 2 20.4081 2 19.8275V17.3254C2 17.0764 2.09883 16.8387 2.27523 16.6623L8.44541 10.4921C8.20169 9.48032 8.19066 8.42639 8.41317 7.4097C8.63568 6.393 9.08593 5.44003 9.73002 4.62252C10.3741 3.805 11.1953 3.14425 12.1316 2.68999C13.068 2.23574 14.0953 1.99982 15.136 2ZM10.1318 8.88078C10.1306 9.41998 10.2182 9.95668 10.3883 10.4684C10.4436 10.6337 10.4516 10.8112 10.4116 10.981C10.3716 11.1507 10.2851 11.3059 10.1619 11.4292L3.87658 17.7132V19.8275C3.87658 20.0001 4.01669 20.1402 4.18934 20.1402H6.30362L6.37868 20.0652V18.5764C6.37868 18.3276 6.47753 18.0889 6.6535 17.913C6.82946 17.737 7.06812 17.6381 7.31697 17.6381H8.80572L8.88078 17.5631V16.0743C8.88078 15.8255 8.97964 15.5868 9.1556 15.4109C9.33156 15.2349 9.57022 15.136 9.81907 15.136H11.3078L12.5876 13.8537C12.7111 13.7306 12.8663 13.6444 13.0361 13.6046C13.2058 13.5648 13.3832 13.5731 13.5485 13.6285C14.5523 13.9643 15.6368 13.9732 16.646 13.6538C17.6552 13.3344 18.5372 12.7031 19.165 11.8509C19.7929 10.9986 20.1343 9.96923 20.1402 8.9107C20.1461 7.85217 19.8161 6.81903 19.1978 5.95983C18.5795 5.10063 17.7047 4.45963 16.6991 4.12899C15.6935 3.79835 14.609 3.79511 13.6014 4.11973C12.5939 4.44435 11.7152 5.08011 11.0918 5.9356C10.4684 6.79108 10.1323 7.82223 10.1318 8.88078ZM15.7616 9.50631C15.4298 9.50631 15.1116 9.3745 14.8769 9.13988C14.6423 8.90526 14.5105 8.58705 14.5105 8.25525C14.5105 7.92346 14.6423 7.60525 14.8769 7.37063C15.1116 7.13601 15.4298 7.0042 15.7616 7.0042C16.0934 7.0042 16.4116 7.13601 16.6462 7.37063C16.8808 7.60525 17.0126 7.92346 17.0126 8.25525C17.0126 8.58705 16.8808 8.90526 16.6462 9.13988C16.4116 9.3745 16.0934 9.50631 15.7616 9.50631Z" fill="#1478FF"/>
</svg>
