<svg width="274" height="32" viewBox="0 0 274 32" fill="none" xmlns="http://www.w3.org/2000/svg">
<path d="M13.6968 1.14375C10.871 1.5375 8.13548 2.65 5.8129 4.50625L10.8065 9.34375C12.6 7.10625 13.6 4.26875 13.6968 1.14375ZM16 14.375L26.1871 4.50625C23.4516 2.31875 20.1484 1.1625 16.8 1C16.7226 4.99375 15.4129 8.64375 13.0129 11.4812L16 14.375ZM3.61935 6.63125C1.70323 8.88125 0.554839 11.5312 0.148387 14.2688C3.37419 14.175 6.30968 13.2063 8.6129 11.4688L3.61935 6.63125ZM21.1806 19.3937C24.1032 17.075 27.871 15.8063 32 15.725C31.8323 12.4813 30.6387 9.28125 28.3806 6.63125L18.1935 16.5L21.1806 19.3937ZM16 18.625L5.8129 28.4937C8.54839 30.675 11.8516 31.8375 15.2 32C15.2839 28 16.5935 24.35 18.9871 21.5187L16 18.625ZM28.3806 26.3687C30.2968 24.1187 31.4452 21.4688 31.8516 18.7313C28.6194 18.8313 25.6903 19.8 23.3871 21.5312L28.3806 26.3687ZM10.8194 13.6062C7.89032 15.9312 4.12258 17.2062 0 17.275C0.167742 20.5187 1.36129 23.7188 3.61935 26.3687L13.8065 16.5L10.8194 13.6062ZM18.3032 31.8563C21.129 31.4625 23.8645 30.35 26.1871 28.4937L21.1935 23.6562C19.4065 25.8875 18.4065 28.7313 18.3032 31.8563Z" fill="#1478FF"/>
<path d="M52.756 24.33C51.1427 24.33 49.72 23.9927 48.488 23.318C47.256 22.6433 46.2953 21.6973 45.606 20.48C44.9313 19.2627 44.594 17.8693 44.594 16.3C44.594 14.7307 44.9313 13.3373 45.606 12.12C46.2953 10.9027 47.256 9.95667 48.488 9.282C49.72 8.60733 51.128 8.27 52.712 8.27C54.1787 8.27 55.4913 8.54133 56.65 9.084C57.8233 9.62667 58.7767 10.4113 59.51 11.438C60.258 12.45 60.7493 13.6453 60.984 15.024H55.77C55.5647 14.4373 55.2053 13.9753 54.692 13.638C54.1933 13.286 53.614 13.11 52.954 13.11C52.0593 13.11 51.3333 13.4033 50.776 13.99C50.2333 14.5767 49.962 15.3467 49.962 16.3C49.962 17.2387 50.2333 18.0087 50.776 18.61C51.3333 19.1967 52.0447 19.49 52.91 19.49C53.5993 19.49 54.2007 19.314 54.714 18.962C55.2273 18.61 55.594 18.126 55.814 17.51H61.05C60.874 18.874 60.4047 20.0693 59.642 21.096C58.894 22.1227 57.926 22.922 56.738 23.494C55.55 24.0513 54.2227 24.33 52.756 24.33ZM62.9817 8.6H77.2377V24H71.9137V13.44H68.3057V24H62.9817V8.6ZM87.7408 24.33C86.0835 24.33 84.6095 23.9927 83.3188 23.318C82.0281 22.6287 81.0235 21.6753 80.3048 20.458C79.5861 19.2407 79.2268 17.8547 79.2268 16.3C79.2268 14.7453 79.5861 13.3593 80.3048 12.142C81.0235 10.9247 82.0281 9.97867 83.3188 9.304C84.6095 8.61467 86.0835 8.27 87.7408 8.27C89.4128 8.27 90.8941 8.61467 92.1848 9.304C93.4755 9.97867 94.4801 10.9247 95.1988 12.142C95.9175 13.3593 96.2768 14.7453 96.2768 16.3C96.2768 17.8547 95.9175 19.2407 95.1988 20.458C94.4801 21.6753 93.4755 22.6287 92.1848 23.318C90.8941 23.9927 89.4128 24.33 87.7408 24.33ZM84.5948 16.3C84.5948 17.2387 84.8881 18.0087 85.4748 18.61C86.0615 19.1967 86.8168 19.49 87.7408 19.49C88.6648 19.49 89.4201 19.1967 90.0068 18.61C90.6081 18.0087 90.9088 17.2387 90.9088 16.3C90.9088 15.3613 90.6081 14.5987 90.0068 14.012C89.4201 13.4107 88.6648 13.11 87.7408 13.11C86.8168 13.11 86.0615 13.4107 85.4748 14.012C84.8881 14.5987 84.5948 15.3613 84.5948 16.3ZM98.2376 8.6H105.388C106.722 8.6 107.881 8.842 108.864 9.326C109.861 9.81 110.624 10.4993 111.152 11.394C111.694 12.2887 111.966 13.3373 111.966 14.54C111.966 15.7427 111.694 16.7913 111.152 17.686C110.624 18.566 109.868 19.248 108.886 19.732C107.903 20.216 106.752 20.458 105.432 20.458H103.562V24H98.2376V8.6ZM104.684 16.3C105.314 16.3 105.798 16.1533 106.136 15.86C106.473 15.552 106.642 15.1267 106.642 14.584C106.642 14.0413 106.473 13.6233 106.136 13.33C105.798 13.022 105.314 12.868 104.684 12.868H103.452V16.3H104.684ZM117.316 13.418H112.85V8.6H127.106V13.418H122.64V24H117.316V13.418ZM129.111 8.6H134.347V13.22L134.303 15.31H134.369L139.253 8.6H143.609V24H138.373V19.314L138.417 17.246L138.329 17.224L133.423 24H129.111V8.6ZM146.363 8.6H154.789C156.373 8.6 157.619 8.96667 158.529 9.7C159.453 10.4333 159.915 11.438 159.915 12.714C159.915 13.4767 159.746 14.1587 159.409 14.76C159.086 15.3613 158.617 15.838 158.001 16.19C158.719 16.498 159.291 16.9747 159.717 17.62C160.142 18.2507 160.355 18.9767 160.355 19.798C160.355 20.6193 160.135 21.3527 159.695 21.998C159.269 22.6287 158.661 23.12 157.869 23.472C157.077 23.824 156.175 24 155.163 24H146.363V8.6ZM153.645 20.37C154.085 20.37 154.422 20.2673 154.657 20.062C154.906 19.842 155.031 19.5413 155.031 19.16C155.031 18.764 154.906 18.4633 154.657 18.258C154.422 18.038 154.085 17.928 153.645 17.928H151.489V20.37H153.645ZM153.359 14.562C153.784 14.562 154.114 14.4593 154.349 14.254C154.583 14.0487 154.701 13.7553 154.701 13.374C154.701 12.9927 154.583 12.6993 154.349 12.494C154.114 12.2887 153.784 12.186 153.359 12.186H151.489V14.562H153.359ZM171.193 18.588H167.585V24H162.261V8.6H167.585V13.748H171.193V8.6H176.517V24H171.193V18.588ZM179.298 8.6H184.622V12.802H187.086C188.245 12.802 189.271 13.0367 190.166 13.506C191.075 13.9753 191.779 14.6353 192.278 15.486C192.777 16.322 193.026 17.2973 193.026 18.412C193.026 19.512 192.777 20.4873 192.278 21.338C191.779 22.174 191.075 22.8267 190.166 23.296C189.271 23.7653 188.245 24 187.086 24H179.298V8.6ZM186.118 19.82C186.646 19.82 187.049 19.7027 187.328 19.468C187.607 19.2187 187.746 18.852 187.746 18.368C187.746 17.444 187.203 16.982 186.118 16.982H184.49V19.82H186.118ZM194.852 8.6H200.176V24H194.852V8.6ZM202.952 8.6H208.188V13.22L208.144 15.31H208.21L213.094 8.6H217.45V24H212.214V19.314L212.258 17.246L212.17 17.224L207.264 24H202.952V8.6ZM206.692 3.782H209.442V3.98C209.442 4.22933 209.516 4.42733 209.662 4.574C209.809 4.706 210.007 4.772 210.256 4.772C210.52 4.772 210.718 4.706 210.85 4.574C210.997 4.42733 211.07 4.22933 211.07 3.98V3.782H213.842V4.134C213.842 5.146 213.542 5.92333 212.94 6.466C212.354 7.00867 211.459 7.28 210.256 7.28C209.112 7.28 208.232 7.00867 207.616 6.466C207 5.90867 206.692 5.13133 206.692 4.134V3.782ZM225.103 8.6H236.389V13.418H230.427V24H225.103V8.6ZM238.316 8.6H243.552V13.22L243.508 15.31H243.574L248.458 8.6H252.814V24H247.578V19.314L247.622 17.246L247.534 17.224L242.628 24H238.316V8.6ZM254.666 19.094H256.404C256.668 18.83 256.873 18.5073 257.02 18.126C257.166 17.7447 257.262 17.2753 257.306 16.718L257.944 8.6H270.462V19.094H272.662V27.036H267.536V24H259.792V27.036H254.666V19.094ZM265.204 19.358V13.352H262.806L262.498 17.18C262.424 18.0747 262.234 18.8007 261.926 19.358H265.204Z" fill="#030303"/>
</svg>
