<svg width="36" height="36" viewBox="0 0 36 36" fill="none" xmlns="http://www.w3.org/2000/svg">
<rect width="36" height="36" rx="18" fill="#E5F0FF"/>
<path d="M20.4743 18.4733C21.1279 17.959 21.605 17.2539 21.8391 16.4559C22.0733 15.6579 22.0529 14.8068 21.7808 14.0209C21.5087 13.235 20.9985 12.5535 20.321 12.0712C19.6436 11.5888 18.8326 11.3296 18.001 11.3296C17.1693 11.3296 16.3584 11.5888 15.6809 12.0712C15.0035 12.5535 14.4932 13.235 14.2211 14.0209C13.949 14.8068 13.9286 15.6579 14.1628 16.4559C14.397 17.2539 14.874 17.959 15.5276 18.4733C14.4077 18.9219 13.4305 19.6662 12.7002 20.6265C11.97 21.5869 11.514 22.7275 11.381 23.9266C11.3713 24.0141 11.3791 24.1027 11.4037 24.1873C11.4283 24.2719 11.4693 24.3508 11.5244 24.4195C11.6357 24.5582 11.7975 24.6471 11.9743 24.6666C12.1511 24.686 12.3284 24.6345 12.4672 24.5232C12.606 24.4119 12.6949 24.2501 12.7143 24.0733C12.8607 22.77 13.4821 21.5665 14.4598 20.6924C15.4375 19.8184 16.7029 19.3353 18.0143 19.3353C19.3257 19.3353 20.5911 19.8184 21.5688 20.6924C22.5465 21.5665 23.1679 22.77 23.3143 24.0733C23.3324 24.2371 23.4106 24.3884 23.5337 24.4979C23.6568 24.6075 23.8162 24.6676 23.981 24.6666H24.0543C24.2291 24.6465 24.3888 24.5581 24.4987 24.4208C24.6086 24.2834 24.6597 24.1082 24.641 23.9333C24.5073 22.7307 24.0489 21.5872 23.3149 20.6254C22.5809 19.6635 21.5989 18.9196 20.4743 18.4733ZM18.001 17.9999C17.4736 17.9999 16.958 17.8435 16.5195 17.5505C16.0809 17.2575 15.7391 16.841 15.5373 16.3537C15.3355 15.8665 15.2827 15.3303 15.3855 14.813C15.4884 14.2957 15.7424 13.8206 16.1154 13.4476C16.4883 13.0747 16.9635 12.8207 17.4807 12.7178C17.998 12.6149 18.5342 12.6677 19.0215 12.8696C19.5087 13.0714 19.9252 13.4132 20.2182 13.8517C20.5112 14.2903 20.6676 14.8058 20.6676 15.3333C20.6676 16.0405 20.3867 16.7188 19.8866 17.2189C19.3865 17.719 18.7082 17.9999 18.001 17.9999Z" fill="#1478FF"/>
</svg>
